HIERARCHY
ROOT Hips
{
	OFFSET 0.000000 0.000000 0.000000 
	CHANNELS 6 Xposition Yposition Zposition Zrotation Yrotation Xrotation
	JOINT LeftUpLeg
	{
		OFFSET 1.363060 -1.794630 0.839290 
		CHANNELS 3 Zrotation Yrotation Xrotation
		JOINT LeftLeg
		{
			OFFSET 2.448110 -6.726130 0.000000 
			CHANNELS 3 Zrotation Yrotation Xrotation
			JOINT LeftFoot
			{
				OFFSET 2.562200 -7.039590 0.000000 
				CHANNELS 3 Zrotation Yrotation Xrotation
				JOINT LeftToeBase
				{
					OFFSET 0.157640 -0.433110 2.322550 
					CHANNELS 3 Zrotation Yrotation Xrotation
					End Site
					{
						OFFSET 0.000000 0.000000 0.000000 
					}
				}
			}
		}
	}
	JOINT RightUpLeg
	{
		OFFSET -1.305520 -1.794630 0.839290 
		CHANNELS 3 Zrotation Yrotation Xrotation
		JOINT RightLeg
		{
			OFFSET -2.542530 -6.985550 0.000000 
			CHANNELS 3 Zrotation Yrotation Xrotation
			JOINT RightFoot
			{
				OFFSET -2.568260 -7.056230 0.000000 
				CHANNELS 3 Zrotation Yrotation Xrotation
				JOINT RightToeBase
				{
					OFFSET -0.164730 -0.452590 2.363150 
					CHANNELS 3 Zrotation Yrotation Xrotation
					End Site
					{
						OFFSET 0.000000 0.000000 0.000000 
					}
				}
			}
		}
	}
	JOINT Spine
	{
		OFFSET 0.028270 2.035590 -0.193380 
		CHANNELS 3 Zrotation Yrotation Xrotation
		JOINT Spine1
		{
			OFFSET 0.056720 2.048850 -0.042750 
			CHANNELS 3 Zrotation Yrotation Xrotation
			JOINT Neck1
			{
				OFFSET -0.054170 1.746240 0.172020 
				CHANNELS 3 Zrotation Yrotation Xrotation
				JOINT Head
				{
					OFFSET 0.104070 1.761360 -0.123970 
					CHANNELS 3 Zrotation Yrotation Xrotation
					End Site
					{
						OFFSET 0.000000 0.000000 0.000000 
					}
				}
			}
			JOINT LeftArm
			{
				OFFSET 3.362410 1.200890 -0.311210 
				CHANNELS 3 Zrotation Yrotation Xrotation
				JOINT LeftForeArm
				{
					OFFSET 4.983000 -0.000000 -0.000000 
					CHANNELS 3 Zrotation Yrotation Xrotation
					JOINT LeftHand
					{
						OFFSET 3.483560 -0.000000 -0.000000 
						CHANNELS 3 Zrotation Yrotation Xrotation
						JOINT LeftHandIndex1
						{
							OFFSET 0.715260 -0.000000 -0.000000 
							CHANNELS 3 Zrotation Yrotation Xrotation
							End Site
							{
								OFFSET 0.000000 0.000000 0.000000 
							}
						}
					}
				}
			}
			JOINT RightArm
			{
				OFFSET -3.136600 1.374050 -0.404650 
				CHANNELS 3 Zrotation Yrotation Xrotation
				JOINT RightForeArm
				{
					OFFSET -5.241900 -0.000000 -0.000000 
					CHANNELS 3 Zrotation Yrotation Xrotation
					JOINT RightHand
					{
						OFFSET -3.444170 -0.000000 -0.000000 
						CHANNELS 3 Zrotation Yrotation Xrotation
						JOINT RightHandIndex1
						{
							OFFSET -0.622530 -0.000000 -0.000000 
							CHANNELS 3 Zrotation Yrotation Xrotation
							End Site
							{
								OFFSET 0.000000 0.000000 0.000000 
							}
						}
					}
				}
			}
		}
	}
}
MOTION
Frames: 7
Frame Time: 0.041667
15.442891 18.038250 21.093065 176.683508 5.149888 -173.719389 -22.896552 -13.774405 -18.981733 2.789487 7.491310 25.421856 0.151311 -2.845848 -2.151453 0.020000 0.913100 2.509700 18.047785 13.406007 -13.083375 -12.380451 -16.515150 64.559953 -1.452214 3.517696 21.410125 -0.193500 2.833000 -7.814100 -2.080602 2.508625 6.367202 -2.362235 1.191140 -2.810349 -1.750291 -1.097477 10.233533 -0.209700 -0.972500 6.451100 -90.298083 4.647756 18.277331 16.271336 -17.254790 -2.328639 -0.514361 -0.943754 -1.413404 -7.125000 0.000000 0.000000 89.824504 -3.955048 6.997040 -15.549300 21.625230 -2.619860 0.116281 -0.220741 10.439083 7.125000 0.000000 0.000000 
15.445470 18.033091 20.971155 176.374829 4.760459 -173.752252 -23.346025 -13.636560 -18.416182 2.773248 7.462801 25.300691 0.186821 -3.289159 -2.150726 0.021900 0.956500 2.629000 17.458152 13.250603 -14.713713 -12.829129 -16.717808 66.073510 -1.102445 4.974862 19.331890 -0.235400 3.122500 -8.620100 -2.176760 2.206345 6.208674 -2.214121 1.051839 -2.949033 -1.941121 -1.065281 10.276189 -0.264000 -0.972200 6.420100 -90.125113 4.651231 18.789629 16.542347 -17.693637 -2.434504 -0.553777 -1.034675 -1.601238 -7.125000 0.000000 0.000000 89.901654 -4.162764 6.670519 -15.537662 21.614425 -2.614557 0.116319 -0.221727 10.672384 7.125000 0.000000 0.000000 
15.436967 18.027550 20.832812 176.047882 4.898764 -173.914200 -23.871179 -13.327792 -17.549576 2.703518 7.359289 24.901436 0.204628 -3.372247 -2.400196 0.022100 0.959700 2.637900 16.774158 13.512502 -16.178318 -13.266815 -16.900903 67.573254 -0.825746 5.835198 17.276707 -0.173800 2.685300 -7.403900 -2.528136 2.407199 6.546765 -2.163510 1.152819 -2.894601 -1.997641 -1.201735 10.526376 -0.330800 -1.029700 6.557500 -89.725694 4.192263 20.131725 16.714508 -17.984555 -2.507066 -0.559452 -1.262306 -2.405083 -7.125000 0.000000 0.000000 90.232521 -4.097834 5.992844 -15.647837 21.822561 -2.663183 0.114634 -0.220380 10.589954 7.125000 0.000000 0.000000 
15.428560 18.032040 20.689597 175.879072 5.081033 -174.061477 -24.255086 -12.899579 -16.780651 2.657525 7.310182 24.663180 0.231254 -3.509817 -2.743848 0.031300 1.141300 3.137600 16.263619 13.915395 -17.589592 -13.683434 -17.065225 69.025720 -0.655996 5.856053 15.370851 -0.065800 1.655500 -4.554400 -2.521673 2.375186 6.326841 -2.147468 1.146641 -2.948331 -1.973289 -1.042668 10.165889 -0.278500 -0.960800 6.326000 -89.733726 4.437003 20.427818 16.914975 -18.271560 -2.609545 -0.539441 -1.068680 -2.537219 -7.125000 0.000000 0.000000 90.170082 -4.694454 6.265357 -15.793853 22.007986 -2.723559 0.110272 -0.212144 9.997365 7.125000 0.000000 0.000000 
15.425311 18.036149 20.556318 175.699130 4.901094 -174.090656 -24.603655 -12.670852 -16.180061 2.622361 7.266459 24.464380 0.249629 -3.657532 -2.870165 0.019600 0.904800 2.486900 15.751860 14.056843 -19.104403 -14.059852 -17.205534 70.335726 -0.496152 5.765068 13.249166 -0.020000 0.912500 -2.508000 -2.625636 2.229048 6.050528 -2.113264 1.083562 -3.146643 -2.205241 -1.054970 10.280602 -0.366400 -0.979100 6.316400 -89.571537 4.525848 20.540391 17.107000 -18.552187 -2.697296 -0.457235 -1.011981 -2.131213 -7.125000 0.000000 0.000000 90.267633 -4.984297 5.718151 -15.713655 21.894925 -2.692222 0.103315 -0.212814 9.983299 7.125000 0.000000 0.000000 
15.422732 18.029079 20.430968 175.407075 4.864217 -174.088905 -25.057522 -12.430878 -15.775676 2.612193 7.257206 24.401732 0.267677 -3.794816 -3.019470 0.004300 0.425900 1.170300 15.086382 14.271970 -20.646653 -14.373234 -17.311028 71.411827 -0.307465 6.179939 10.886875 -0.035000 1.207000 -3.318600 -2.648552 2.092395 6.068187 -1.945463 1.026082 -3.254633 -2.087921 -1.006620 10.748520 -0.325800 -0.954500 6.517500 -89.510702 4.333953 21.219864 17.371487 -18.951992 -2.811444 -0.422924 -1.090237 -2.764280 -7.125000 0.000000 0.000000 90.298679 -4.985451 5.077886 -15.674397 21.856320 -2.662810 0.118767 -0.227152 10.095126 7.125000 0.000000 0.000000 
15.427127 18.024110 20.309154 175.275932 4.730811 -174.080972 -25.295999 -12.152766 -15.544630 2.640739 7.323332 24.580148 0.297896 -4.106245 -3.153543 0.000100 0.078900 0.216800 14.728374 14.480031 -22.187528 -14.625502 -17.375185 72.270894 -0.170780 6.447641 8.684209 -0.079100 1.813700 -4.991100 -2.479412 1.936094 6.315703 -1.740459 0.958280 -3.219144 -2.115885 -0.935480 10.800105 -0.328900 -0.920100 6.597000 -89.535785 3.945805 22.163575 17.636966 -19.375017 -2.930530 -0.510209 -1.216314 -3.427940 -7.125000 0.000000 0.000000 90.265341 -4.952521 5.061212 -15.831282 22.088224 -2.699509 0.163598 -0.234340 9.615719 7.125000 0.000000 0.000000 
